<svg xmlns="http://www.w3.org/2000/svg" xmlns:xlink="http://www.w3.org/1999/xlink" width="500" zoomAndPan="magnify" viewBox="0 0 375 374.999991" height="500" preserveAspectRatio="xMidYMid meet" version="1.0"><defs><clipPath id="b33935cb81"><path d="M 3 6 L 371.71875 6 L 371.71875 368.726562 L 3 368.726562 Z M 3 6 " clip-rule="nonzero"/></clipPath><clipPath id="511c894874"><path d="M 78.601562 6.273438 L 296.398438 6.273438 C 337.820312 6.273438 371.398438 39.851562 371.398438 81.273438 L 371.398438 293.726562 C 371.398438 335.148438 337.820312 368.726562 296.398438 368.726562 L 78.601562 368.726562 C 37.179688 368.726562 3.601562 335.148438 3.601562 293.726562 L 3.601562 81.273438 C 3.601562 39.851562 37.179688 6.273438 78.601562 6.273438 Z M 78.601562 6.273438 " clip-rule="nonzero"/></clipPath><clipPath id="58f66200d6"><path d="M 0.601562 0.238281 L 368.519531 0.238281 L 368.519531 362.726562 L 0.601562 362.726562 Z M 0.601562 0.238281 " clip-rule="nonzero"/></clipPath><clipPath id="200fc677fb"><path d="M 75.601562 0.273438 L 293.398438 0.273438 C 334.820312 0.273438 368.398438 33.851562 368.398438 75.273438 L 368.398438 287.726562 C 368.398438 329.148438 334.820312 362.726562 293.398438 362.726562 L 75.601562 362.726562 C 34.179688 362.726562 0.601562 329.148438 0.601562 287.726562 L 0.601562 75.273438 C 0.601562 33.851562 34.179688 0.273438 75.601562 0.273438 Z M 75.601562 0.273438 " clip-rule="nonzero"/></clipPath><clipPath id="cbad2b5d61"><rect x="0" width="369" y="0" height="363"/></clipPath><clipPath id="a356ebfe28"><path d="M 87.4375 74.460938 L 287.558594 74.460938 L 287.558594 300.210938 L 87.4375 300.210938 Z M 87.4375 74.460938 " clip-rule="nonzero"/></clipPath></defs><g clip-path="url(#b33935cb81)"><g clip-path="url(#511c894874)"><g transform="matrix(1, 0, 0, 1, 3, 6)"><g clip-path="url(#cbad2b5d61)"><g clip-path="url(#58f66200d6)"><g clip-path="url(#200fc677fb)"><path fill="#6517ab" d="M 0.601562 0.273438 L 368.71875 0.273438 L 368.71875 362.726562 L 0.601562 362.726562 Z M 0.601562 0.273438 " fill-opacity="1" fill-rule="nonzero"/></g></g></g></g></g></g><g clip-path="url(#a356ebfe28)"><path fill="#ffffff" d="M 239.269531 181.824219 C 238.132812 181.824219 237.214844 180.90625 237.214844 179.769531 C 237.214844 169.753906 230.617188 161.605469 222.507812 161.605469 C 214.398438 161.605469 207.804688 169.753906 207.804688 179.769531 C 207.804688 180.90625 206.882812 181.824219 205.75 181.824219 C 204.613281 181.824219 203.691406 180.90625 203.691406 179.769531 C 203.691406 167.488281 212.132812 157.496094 222.507812 157.496094 C 232.882812 157.496094 241.324219 167.488281 241.324219 179.769531 C 241.324219 180.90625 240.402344 181.824219 239.269531 181.824219 Z M 165.34375 200.75 C 166.480469 200.75 167.398438 201.671875 167.398438 202.808594 C 167.398438 215.234375 175.632812 225.347656 185.753906 225.347656 C 195.875 225.347656 204.105469 215.234375 204.105469 202.808594 C 204.105469 201.671875 205.027344 200.75 206.164062 200.75 C 207.296875 200.75 208.21875 201.671875 208.21875 202.808594 C 208.21875 217.5 198.140625 229.457031 185.753906 229.457031 C 173.367188 229.457031 163.289062 217.5 163.289062 202.808594 C 163.289062 201.671875 164.210938 200.75 165.34375 200.75 Z M 132.789062 179.769531 C 132.789062 180.90625 131.867188 181.824219 130.730469 181.824219 C 129.597656 181.824219 128.675781 180.90625 128.675781 179.769531 C 128.675781 167.488281 137.117188 157.496094 147.492188 157.496094 C 157.867188 157.496094 166.308594 167.488281 166.308594 179.769531 C 166.308594 180.90625 165.386719 181.824219 164.253906 181.824219 C 163.117188 181.824219 162.199219 180.90625 162.199219 179.769531 C 162.199219 169.753906 155.601562 161.605469 147.492188 161.605469 C 139.382812 161.605469 132.789062 169.753906 132.789062 179.769531 Z M 264.925781 121.394531 L 271.128906 99.554688 C 271.75 99.648438 272.378906 99.710938 273.023438 99.710938 C 273.445312 99.710938 273.875 99.691406 274.308594 99.648438 C 277.703125 99.304688 280.75 97.667969 282.898438 95.035156 C 285.027344 92.429688 286.011719 89.152344 285.667969 85.8125 C 284.964844 78.890625 278.722656 73.828125 271.753906 74.527344 C 268.363281 74.867188 265.3125 76.503906 263.164062 79.136719 C 261.035156 81.746094 260.050781 85.019531 260.390625 88.359375 C 260.839844 92.757812 263.527344 96.402344 267.214844 98.296875 L 260.890625 120.570312 C 259.515625 120.382812 258.117188 120.28125 256.691406 120.28125 L 118.300781 120.28125 C 117.53125 120.28125 116.765625 120.316406 116.007812 120.371094 L 109.742188 98.296875 C 113.425781 96.402344 116.113281 92.757812 116.5625 88.359375 C 116.902344 85.019531 115.917969 81.746094 113.789062 79.136719 C 111.644531 76.503906 108.59375 74.867188 105.203125 74.527344 C 98.246094 73.820312 91.992188 78.886719 91.285156 85.8125 C 90.945312 89.15625 91.929688 92.429688 94.054688 95.039062 C 96.203125 97.667969 99.253906 99.304688 102.644531 99.648438 C 103.078125 99.691406 103.507812 99.710938 103.933594 99.710938 C 104.574219 99.710938 105.203125 99.648438 105.824219 99.554688 L 111.898438 120.945312 C 97.945312 123.882812 87.4375 136.207031 87.4375 150.925781 L 87.4375 233.648438 C 87.4375 249.800781 100.207031 263.046875 116.246094 263.960938 L 116.246094 297.105469 C 116.246094 298.46875 117.054688 299.699219 118.308594 300.242188 C 118.753906 300.433594 119.21875 300.527344 119.679688 300.527344 C 120.535156 300.527344 121.375 300.210938 122.015625 299.613281 L 158.355469 266.148438 C 159.960938 264.769531 162.011719 264.007812 164.136719 264.007812 L 256.691406 264.007812 C 273.710938 264.007812 287.558594 250.261719 287.558594 233.363281 L 287.558594 150.925781 C 287.558594 136.859375 277.960938 124.984375 264.925781 121.394531 " fill-opacity="1" fill-rule="nonzero"/></g></svg>